# xmcd
#
# Track frame offsets:
#	150
#	15153
#	36447
#	51299
#	76267
#	93764
#	109675
#	127140
#	143978
#	151242
#	164516
#
# Disc length: 2413 seconds
# Revision: 1
# Processed by: cddbd v1.5.2PL0 Copyright (c) Steve Scherf et al.
# Submitted via: dBpowerAMP V12.0
#
DISCID=86096b0b
DTITLE=Psalty and The Kids' Praise! Kids - Kids' Praise 4: Singsational Servants!
DYEAR=1984
DGENRE=Gospel
TTITLE0=We're Singing Praises
TTITLE1=Servant Of All
TTITLE2=Take All Of Me
TTITLE3=Draw Me Nearer
TTITLE4=Beautiful
TTITLE5=Beethoven's New 9th
TTITLE6=The Recipe Song
TTITLE7=Charity's Dream
TTITLE8=Make Me A Servant
TTITLE9=Jesus Put The Song In My Heart
TTITLE10=Make Me A Servant (Chorus Reprise)
EXTD=
EXTT0=
EXTT1=
EXTT2=
EXTT3=
EXTT4=
EXTT5=
EXTT6=
EXTT7=
EXTT8=
EXTT9=
EXTT10=
PLAYORDER=
